<svg id="svg" version="1.1" xmlns="http://www.w3.org/2000/svg" xmlns:xlink="http://www.w3.org/1999/xlink" width="400" height="400" viewBox="0, 0, 400,400"><g id="svgg"><path id="path0" d="M0.000 200.000 L 0.000 400.000 200.000 400.000 L 400.000 400.000 400.000 200.000 L 400.000 0.000 200.000 0.000 L 0.000 0.000 0.000 200.000 M243.417 78.664 C 249.445 79.938,257.769 84.361,262.121 88.602 C 263.165 89.620,265.012 90.032,272.917 91.009 C 289.267 93.030,303.728 98.765,306.452 104.310 C 307.112 105.652,306.784 105.763,304.654 104.921 C 295.226 101.193,279.242 99.820,269.598 101.911 C 257.886 104.450,252.915 109.271,251.399 119.559 C 250.754 123.941,251.180 126.755,253.579 133.947 C 256.459 142.586,257.325 149.953,256.366 157.667 C 253.838 177.989,234.954 197.838,213.804 202.404 C 213.336 202.505,212.949 203.345,211.394 207.636 C 210.326 210.583,210.333 210.449,210.333 227.188 L 210.333 242.333 206.750 242.333 L 203.167 242.333 203.167 224.923 C 203.167 203.215,203.457 204.833,199.566 204.833 C 195.807 204.833,196.098 203.183,196.039 224.875 L 195.991 242.333 192.341 242.333 L 188.692 242.333 188.624 228.458 C 188.548 213.061,188.519 212.603,187.347 208.474 C 186.300 204.785,185.781 204.120,183.809 203.938 C 181.239 203.701,176.520 202.747,174.689 202.094 C 173.987 201.844,173.901 201.852,172.238 202.337 C 152.035 208.222,127.637 206.502,104.250 197.543 C 96.998 194.765,96.850 194.520,101.851 193.583 C 104.668 193.056,106.675 192.633,109.750 191.917 C 116.874 190.260,125.470 187.131,128.625 185.046 C 129.817 184.258,129.796 183.914,128.542 183.673 C 108.422 179.811,94.020 172.222,80.411 158.311 C 75.917 153.717,74.912 152.170,76.080 151.638 C 76.549 151.424,75.996 151.250,82.966 153.811 C 97.936 159.310,102.534 160.460,110.198 160.621 C 121.476 160.857,126.025 159.435,162.583 144.245 C 178.662 137.564,189.006 132.942,197.872 128.476 L 201.160 126.820 201.847 125.642 C 206.041 118.462,208.516 108.202,207.550 102.000 L 207.407 101.083 205.738 101.138 C 196.970 101.422,189.119 97.840,184.378 91.391 C 182.019 88.183,182.183 87.599,185.083 88.889 C 193.353 92.566,205.005 90.969,216.167 84.629 C 225.721 79.202,235.664 77.026,243.417 78.664 M231.909 89.542 L 231.250 90.250 231.958 89.591 C 232.617 88.978,232.743 88.833,232.617 88.833 C 232.590 88.833,232.271 89.152,231.909 89.542 M192.042 150.615 C 192.202 150.657,192.465 150.657,192.625 150.615 C 192.785 150.573,192.654 150.539,192.333 150.539 C 192.012 150.539,191.881 150.573,192.042 150.615 M185.796 159.956 C 186.188 159.991,186.788 159.990,187.129 159.954 C 187.471 159.919,187.150 159.890,186.417 159.890 C 185.683 159.891,185.404 159.920,185.796 159.956 M111.133 166.124 C 111.894 166.155,113.094 166.155,113.800 166.124 C 114.506 166.093,113.883 166.067,112.417 166.067 C 110.950 166.068,110.372 166.093,111.133 166.124 M169.375 166.948 C 169.535 166.990,169.798 166.990,169.958 166.948 C 170.119 166.906,169.987 166.872,169.667 166.872 C 169.346 166.872,169.215 166.906,169.375 166.948 M235.750 180.255 C 226.272 184.522,215.852 188.213,211.750 188.756 C 211.292 188.816,209.979 189.262,208.833 189.746 C 196.979 194.752,182.414 196.820,173.717 194.732 C 173.460 194.670,173.290 194.664,173.339 194.719 C 173.666 195.080,180.389 196.493,184.105 196.981 C 204.091 199.605,220.897 195.357,234.000 184.371 C 235.823 182.843,240.108 178.394,239.641 178.515 C 239.609 178.523,237.858 179.306,235.750 180.255 M273.762 194.133 C 276.689 195.638,276.707 199.853,273.792 201.352 C 271.557 202.501,268.771 201.302,268.067 198.888 C 267.077 195.495,270.634 192.525,273.762 194.133 M255.917 194.459 C 259.490 196.214,258.301 201.500,254.333 201.500 C 251.343 201.500,249.562 198.307,251.153 195.798 C 252.140 194.243,254.261 193.646,255.917 194.459 M180.317 214.386 C 182.593 215.892,181.874 219.404,179.172 219.983 C 178.008 220.233,111.729 220.241,110.167 219.991 C 105.230 219.204,105.030 215.700,109.833 214.146 C 110.701 213.866,112.582 213.852,145.179 213.883 L 179.608 213.917 180.317 214.386 M288.638 214.489 C 292.380 216.243,291.702 219.301,287.417 220.001 C 286.022 220.229,221.340 220.218,220.350 219.989 C 217.512 219.335,217.090 215.354,219.731 214.151 C 220.395 213.849,221.475 213.840,253.917 213.878 L 287.417 213.917 288.638 214.489 M179.791 225.590 C 182.547 226.741,182.219 230.821,179.317 231.489 C 178.268 231.731,114.807 231.730,113.419 231.488 C 108.931 230.707,108.699 227.058,113.050 225.679 C 114.482 225.226,178.713 225.139,179.791 225.590 M285.392 226.055 C 288.922 227.799,288.306 230.736,284.253 231.485 C 283.016 231.714,221.246 231.735,220.263 231.507 C 217.502 230.867,217.141 226.705,219.747 225.565 C 220.159 225.384,226.028 225.351,252.175 225.381 L 284.101 225.417 285.392 226.055 M180.115 237.109 C 182.065 238.035,182.197 241.646,180.321 242.748 C 179.755 243.080,179.510 243.083,151.663 243.083 L 123.576 243.083 122.473 242.540 C 119.693 241.172,120.300 238.343,123.633 237.132 C 124.823 236.700,179.205 236.678,180.115 237.109 M274.917 237.360 C 277.704 238.844,277.942 241.292,275.424 242.580 L 274.440 243.083 247.066 243.083 L 219.691 243.083 219.221 242.734 C 217.546 241.492,217.602 238.349,219.319 237.208 L 219.888 236.829 246.986 236.873 L 274.083 236.917 274.917 237.360 M85.846 254.219 C 88.262 254.845,92.667 256.931,92.667 257.448 C 92.667 257.531,90.732 260.334,89.152 262.539 L 88.706 263.162 88.062 262.642 C 84.544 259.807,78.387 259.627,78.464 262.362 C 78.497 263.499,79.451 264.041,83.258 265.088 C 91.100 267.244,93.667 269.620,93.667 274.723 C 93.667 284.160,80.305 287.074,70.715 279.729 C 69.205 278.572,69.087 278.959,71.857 275.965 C 73.153 274.563,74.273 273.351,74.345 273.270 C 74.417 273.190,75.100 273.626,75.863 274.238 C 79.675 277.302,83.807 278.071,85.791 276.086 C 87.371 274.506,86.003 273.005,82.083 272.019 C 73.946 269.973,71.389 267.933,71.200 263.340 C 70.905 256.180,77.520 252.060,85.846 254.219 M151.917 254.150 C 162.109 256.864,166.619 269.314,160.410 277.596 C 151.401 289.612,132.348 283.528,132.443 268.667 C 132.507 258.698,142.112 251.538,151.917 254.150 M221.440 254.691 C 221.382 255.255,221.333 256.867,221.333 258.274 L 221.333 260.833 214.250 260.833 L 207.167 260.833 207.167 263.167 L 207.167 265.500 213.250 265.500 L 219.333 265.500 219.333 268.750 L 219.333 272.000 213.333 272.000 L 207.333 272.000 207.333 274.165 L 207.333 276.330 214.625 276.373 L 221.917 276.417 221.962 279.875 L 222.007 283.333 210.845 283.333 L 199.684 283.333 199.844 282.875 C 200.044 282.301,199.977 254.539,199.774 254.126 C 199.640 253.852,200.229 253.833,210.441 253.792 C 216.386 253.767,221.317 253.729,221.399 253.707 C 221.483 253.684,221.501 254.114,221.440 254.691 M244.250 254.313 C 247.931 255.533,249.992 257.597,250.512 260.583 C 250.996 263.361,249.838 266.471,247.943 267.486 L 247.514 267.715 248.186 268.048 C 252.839 270.350,253.353 277.656,249.101 281.041 C 246.526 283.091,245.089 283.328,235.263 283.331 L 227.442 283.333 227.804 282.948 L 228.167 282.562 228.167 268.813 C 228.167 256.982,228.133 255.019,227.922 254.740 C 227.195 253.780,226.938 253.810,235.375 253.870 C 242.917 253.925,243.108 253.934,244.250 254.313 M266.149 253.986 C 266.382 254.133,266.361 254.225,265.913 255.000 C 265.460 255.783,265.557 282.225,266.015 282.807 L 266.364 283.250 262.157 283.295 C 257.591 283.343,257.608 283.345,258.138 282.780 L 258.500 282.395 258.500 268.774 C 258.500 255.162,258.500 255.153,258.147 254.676 C 257.953 254.413,257.845 254.116,257.907 254.016 C 258.045 253.792,265.798 253.763,266.149 253.986 M317.864 254.087 C 334.255 257.494,334.991 278.781,318.868 283.126 C 317.274 283.555,317.151 283.562,310.542 283.627 C 303.380 283.697,303.312 283.690,304.167 282.917 C 304.495 282.620,304.500 282.403,304.500 268.830 C 304.500 255.297,304.494 255.037,304.167 254.621 C 303.983 254.388,303.833 254.116,303.833 254.015 C 303.833 253.706,316.339 253.770,317.864 254.087 M107.610 254.260 C 107.670 254.415,107.534 254.704,107.272 254.977 L 106.833 255.435 106.833 260.217 L 106.833 265.000 112.833 265.000 L 118.833 265.000 118.833 260.432 L 118.833 255.865 118.250 255.167 C 117.245 253.964,117.203 253.975,122.414 254.036 C 126.778 254.088,126.998 254.146,126.178 255.026 C 125.644 255.599,125.634 282.368,126.167 283.045 C 126.350 283.279,126.500 283.514,126.500 283.568 C 126.500 283.622,124.625 283.667,122.333 283.667 C 120.042 283.667,118.169 283.610,118.173 283.542 C 118.176 283.473,118.286 283.229,118.417 283.000 C 118.609 282.663,118.656 281.554,118.661 277.208 L 118.667 271.833 112.667 271.833 L 106.667 271.833 106.667 277.078 L 106.667 282.322 107.167 282.833 C 107.977 283.662,107.956 283.667,103.467 283.667 C 100.200 283.667,99.311 283.622,99.467 283.467 C 99.619 283.314,99.667 279.975,99.667 269.456 C 99.667 255.286,99.663 255.200,99.029 254.732 C 98.886 254.627,98.824 254.431,98.884 254.274 C 99.040 253.869,107.455 253.855,107.610 254.260 M185.489 254.432 C 188.424 255.146,191.000 257.053,192.122 259.345 C 194.578 264.361,192.927 270.762,188.615 272.942 L 187.666 273.422 191.416 278.481 C 193.479 281.263,195.167 283.568,195.167 283.603 C 195.167 283.638,193.232 283.667,190.867 283.667 L 186.566 283.667 183.742 279.334 L 180.917 275.001 178.708 275.000 L 176.500 275.000 176.500 278.813 C 176.500 281.999,176.541 282.660,176.750 282.833 C 177.648 283.579,177.244 283.667,172.917 283.667 C 170.671 283.667,168.833 283.631,168.833 283.588 C 168.833 283.545,168.985 283.219,169.171 282.863 C 169.659 281.927,169.616 255.539,169.125 254.790 C 168.965 254.545,168.833 254.305,168.833 254.256 C 168.833 254.006,184.416 254.172,185.489 254.432 M290.065 254.495 C 294.787 255.703,297.653 259.451,297.664 264.432 C 297.671 268.000,295.820 271.417,293.103 272.852 L 292.031 273.417 295.757 278.417 C 297.806 281.167,299.486 283.473,299.491 283.542 C 299.496 283.610,297.569 283.664,295.208 283.661 L 290.917 283.656 288.107 279.328 L 285.297 275.000 283.065 275.000 L 280.833 275.000 280.833 278.765 C 280.833 282.278,280.856 282.559,281.167 282.955 C 281.350 283.188,281.500 283.443,281.500 283.522 C 281.500 283.602,279.618 283.667,277.317 283.667 L 273.134 283.667 273.484 283.074 C 274.005 282.189,274.038 255.804,273.518 254.785 L 273.203 254.167 280.991 254.167 C 288.198 254.167,288.876 254.191,290.065 254.495 M235.167 262.821 L 235.167 265.167 238.708 265.163 C 243.328 265.158,244.167 264.813,244.167 262.917 C 244.167 260.997,243.255 260.599,238.708 260.530 L 235.167 260.476 235.167 262.821 M145.685 260.930 C 139.621 262.561,137.513 270.076,141.903 274.420 C 147.204 279.668,156.046 276.116,156.025 268.747 C 156.010 263.463,150.830 259.547,145.685 260.930 M176.500 264.586 L 176.500 268.363 179.875 268.290 C 183.739 268.207,184.248 268.095,185.235 267.107 C 186.973 265.369,186.531 262.588,184.318 261.333 C 183.608 260.931,183.463 260.915,180.042 260.863 L 176.500 260.810 176.500 264.586 M280.833 264.600 L 280.833 268.367 284.292 268.300 C 289.131 268.207,290.651 267.360,290.662 264.750 C 290.674 261.762,289.119 260.833,284.106 260.833 L 280.833 260.833 280.833 264.600 M311.333 268.667 L 311.333 276.500 313.542 276.497 C 319.790 276.489,323.333 273.655,323.333 268.667 C 323.333 263.623,319.936 260.833,313.795 260.833 L 311.333 260.833 311.333 268.667 M235.167 274.182 L 235.167 276.697 239.125 276.637 C 244.069 276.562,245.159 276.100,245.159 274.083 C 245.159 272.093,244.093 271.667,239.114 271.667 L 235.167 271.667 235.167 274.182 M148.285 297.042 C 149.429 299.554,153.840 309.042,153.937 309.199 C 153.986 309.279,153.117 309.323,152.001 309.297 L 149.976 309.250 149.525 308.167 L 149.073 307.083 146.412 307.040 L 143.750 306.996 143.332 308.123 L 142.915 309.250 140.957 309.297 C 139.881 309.323,139.000 309.308,139.000 309.265 C 139.000 309.164,142.778 300.970,144.252 297.875 L 145.384 295.500 146.483 295.501 L 147.583 295.501 148.285 297.042 M162.608 299.024 L 165.750 302.548 165.795 299.024 L 165.840 295.500 167.670 295.500 L 169.500 295.500 169.500 302.417 L 169.500 309.333 168.292 309.331 L 167.083 309.329 163.833 305.799 L 160.583 302.268 160.538 305.801 L 160.493 309.333 158.663 309.333 L 156.833 309.333 156.833 302.417 L 156.833 295.500 158.150 295.500 L 159.467 295.500 162.608 299.024 M181.204 296.875 C 181.733 298.053,182.797 300.351,186.338 307.958 L 186.978 309.333 185.012 309.333 L 183.045 309.333 182.523 308.167 L 182.001 307.000 179.371 307.000 L 176.740 307.000 176.325 308.125 L 175.910 309.250 173.955 309.297 C 172.880 309.323,172.000 309.308,172.000 309.265 C 172.000 309.158,175.932 300.628,177.289 297.792 L 178.386 295.500 179.487 295.500 L 180.588 295.500 181.204 296.875 M197.532 296.206 C 198.202 296.527,199.050 297.058,199.417 297.384 L 200.083 297.978 198.892 299.179 L 197.702 300.379 197.309 300.003 C 194.331 297.149,190.064 301.196,192.375 304.683 C 193.455 306.313,197.000 306.786,197.000 305.300 L 197.000 304.833 195.833 304.833 L 194.667 304.833 194.667 303.167 L 194.667 301.500 197.500 301.500 L 200.333 301.500 200.333 304.631 L 200.333 307.763 199.458 308.287 C 193.797 311.674,187.168 307.591,188.317 301.423 C 189.186 296.756,193.543 294.289,197.532 296.206 M213.667 297.250 L 213.667 299.000 211.000 299.000 L 208.333 299.000 208.333 300.108 L 208.333 301.217 210.589 301.122 L 212.845 301.027 212.798 302.639 L 212.750 304.250 210.542 304.297 L 208.333 304.343 208.333 305.255 L 208.333 306.167 211.000 306.167 L 213.667 306.167 213.667 307.750 L 213.667 309.333 209.250 309.333 L 204.833 309.333 204.833 302.680 C 204.833 299.021,204.788 295.909,204.732 295.764 C 204.641 295.527,205.098 295.500,209.149 295.500 L 213.667 295.500 213.667 297.250 M245.833 297.250 L 245.833 299.000 243.167 299.000 L 240.500 299.000 240.500 300.108 L 240.500 301.217 242.750 301.122 L 245.000 301.028 245.000 302.681 L 245.000 304.333 242.750 304.333 L 240.500 304.333 240.500 305.250 L 240.500 306.167 243.250 306.167 L 246.000 306.167 246.000 307.750 L 246.000 309.333 241.583 309.333 L 237.167 309.333 237.159 303.125 C 237.155 299.710,237.090 296.598,237.015 296.208 L 236.878 295.500 241.356 295.500 L 245.833 295.500 245.833 297.250 M256.000 298.422 C 257.421 300.024,258.827 301.609,259.125 301.945 L 259.667 302.556 259.667 299.028 L 259.667 295.500 261.500 295.500 L 263.333 295.500 263.333 302.417 L 263.333 309.333 262.173 309.333 L 261.012 309.333 257.714 305.768 L 254.417 302.202 254.372 305.768 L 254.327 309.333 252.580 309.333 L 250.833 309.333 250.833 302.417 L 250.833 295.500 252.125 295.505 L 253.417 295.510 256.000 298.422 M126.167 298.497 C 127.313 300.052,128.287 301.325,128.333 301.324 C 128.379 301.323,129.388 300.050,130.575 298.494 L 132.733 295.667 134.200 295.667 L 135.667 295.667 135.667 302.500 L 135.667 309.333 133.833 309.333 L 132.000 309.333 132.000 305.917 C 132.000 304.037,131.936 302.500,131.857 302.500 C 131.779 302.500,131.016 303.554,130.161 304.841 C 128.224 307.763,128.386 307.760,126.419 304.898 L 124.917 302.712 124.872 306.189 L 124.827 309.667 123.080 309.667 L 121.333 309.667 121.333 302.667 L 121.333 295.667 122.708 295.667 L 124.083 295.668 126.167 298.497 M222.781 298.490 C 223.945 300.043,224.949 301.281,225.012 301.243 C 225.075 301.204,226.078 299.933,227.240 298.419 L 229.355 295.667 230.761 295.667 L 232.167 295.667 232.167 302.500 L 232.167 309.333 230.337 309.333 L 228.507 309.333 228.462 305.875 L 228.417 302.417 226.866 304.717 C 224.778 307.816,225.021 307.812,222.948 304.778 L 221.583 302.779 221.538 306.223 L 221.493 309.667 219.747 309.667 L 218.000 309.667 218.000 302.667 L 218.000 295.667 219.332 295.667 L 220.665 295.667 222.781 298.490 M277.833 297.583 L 277.833 299.333 276.167 299.333 L 274.500 299.333 274.500 304.333 L 274.500 309.333 272.667 309.333 L 270.833 309.333 270.833 304.333 L 270.833 299.333 268.917 299.333 L 267.000 299.333 267.000 297.583 L 267.000 295.833 272.417 295.833 L 277.833 295.833 277.833 297.583 M104.364 300.254 C 108.092 302.838,104.837 308.845,100.743 306.939 C 97.802 305.569,97.772 301.426,100.693 299.940 C 101.619 299.469,103.459 299.626,104.364 300.254 M297.590 299.980 C 298.888 300.570,299.669 301.878,299.663 303.453 C 299.646 307.985,293.484 308.731,292.330 304.340 C 291.539 301.329,294.733 298.682,297.590 299.980 M145.586 302.042 C 145.238 302.981,144.919 303.844,144.876 303.958 C 144.817 304.115,145.154 304.167,146.232 304.167 C 147.021 304.167,147.667 304.111,147.667 304.042 C 147.667 303.726,146.458 300.333,146.345 300.333 C 146.275 300.333,145.934 301.102,145.586 302.042 M178.586 302.042 C 178.238 302.981,177.919 303.844,177.876 303.958 C 177.817 304.115,178.154 304.167,179.232 304.167 C 180.021 304.167,180.667 304.111,180.667 304.042 C 180.667 303.726,179.458 300.333,179.345 300.333 C 179.275 300.333,178.934 301.102,178.586 302.042 " stroke="none" fill="#cbd3d3" fill-rule="evenodd"></path><path id="path1" d="M235.250 78.269 C 228.777 78.943,222.050 81.155,216.702 84.367 C 205.820 90.903,193.570 92.600,184.710 88.799 C 182.419 87.816,182.239 88.146,183.781 90.500 C 188.118 97.121,195.082 100.732,203.937 100.952 L 207.458 101.040 207.561 101.895 C 208.374 108.658,206.216 118.066,202.278 124.932 L 201.235 126.750 197.243 128.781 C 186.581 134.204,169.569 141.597,145.917 151.085 C 126.062 159.050,122.404 160.157,114.194 160.686 C 105.360 161.256,98.321 159.644,80.636 153.000 C 73.981 150.500,73.933 151.634,80.415 158.311 C 93.243 171.525,109.006 179.990,127.000 183.328 C 129.461 183.784,129.500 183.797,129.500 184.170 C 129.500 186.094,115.558 190.933,102.786 193.443 C 97.264 194.527,97.224 194.593,101.067 196.225 C 124.478 206.160,151.007 208.435,172.131 202.316 L 173.846 201.820 175.598 202.322 C 177.663 202.914,180.913 203.560,183.250 203.842 C 185.914 204.165,186.433 204.778,187.482 208.848 C 188.541 212.955,188.547 213.058,188.621 228.375 L 188.689 242.333 192.349 242.333 L 196.009 242.333 196.001 225.125 C 195.993 206.800,195.986 206.995,196.786 205.625 C 197.285 204.770,197.685 204.647,199.779 204.702 C 201.963 204.760,202.239 204.919,202.873 206.486 L 203.250 207.417 203.295 224.875 L 203.341 242.333 206.837 242.333 L 210.333 242.333 210.336 227.042 C 210.338 209.073,210.308 209.344,212.990 203.414 L 213.444 202.412 214.496 202.194 C 233.034 198.365,252.139 179.472,255.730 161.417 C 257.563 152.202,256.900 144.001,253.502 133.833 C 251.350 127.393,251.250 126.905,251.250 122.833 C 251.250 109.625,258.607 102.780,274.633 101.079 C 283.377 100.151,297.662 101.978,304.815 104.939 C 306.905 105.804,307.269 105.334,305.908 103.524 C 301.594 97.785,288.027 92.794,271.431 90.840 C 268.109 90.449,265.129 89.953,263.902 89.589 C 263.008 89.323,262.786 89.173,260.305 87.150 C 252.465 80.760,243.124 77.449,235.250 78.269 M244.083 88.325 C 249.818 89.559,255.466 92.625,259.405 96.645 C 260.273 97.531,260.354 97.668,260.072 97.767 C 246.889 102.383,240.268 119.283,246.082 133.479 C 249.959 142.945,250.793 155.410,248.103 163.683 C 242.537 180.798,225.640 194.190,206.083 196.985 C 192.990 198.856,180.939 197.541,166.623 192.679 C 161.175 190.828,152.303 186.938,154.583 187.399 C 159.078 188.309,171.540 188.591,178.061 187.930 C 198.060 185.904,212.174 179.391,220.954 168.138 C 234.058 151.343,229.870 129.541,212.904 126.239 C 212.086 126.080,211.399 125.937,211.378 125.922 C 211.287 125.858,212.528 119.023,213.074 116.583 C 217.229 98.013,223.167 89.764,233.583 88.088 C 235.889 87.717,241.883 87.852,244.083 88.325 M239.557 90.503 C 233.440 91.745,234.676 100.864,240.908 100.464 C 245.141 100.192,247.108 95.203,244.223 92.055 C 243.874 91.674,243.779 91.611,243.986 91.897 C 244.874 93.127,244.107 94.833,242.667 94.833 C 241.113 94.833,240.381 92.926,241.504 91.804 C 241.942 91.366,242.105 91.308,242.754 91.360 C 243.482 91.418,243.492 91.412,243.135 91.143 C 242.403 90.591,240.661 90.279,239.557 90.503 M212.333 133.416 C 221.555 135.831,224.576 146.979,219.035 158.143 C 214.418 167.447,203.636 175.121,191.250 177.918 C 190.150 178.167,188.162 178.620,186.833 178.926 C 174.840 181.685,159.431 181.623,140.667 178.740 C 123.597 176.117,105.727 170.166,101.418 165.668 C 100.865 165.090,100.814 165.101,102.667 165.405 C 106.583 166.046,116.188 166.181,120.917 165.661 L 122.750 165.460 125.133 166.227 C 139.498 170.855,165.693 174.907,177.500 174.329 C 194.175 173.513,205.428 168.660,210.636 160.040 L 211.166 159.162 210.541 159.431 C 197.384 165.091,178.844 168.085,165.167 166.758 C 155.944 165.863,135.810 161.788,136.620 160.981 C 136.778 160.823,141.347 158.787,142.747 158.250 C 143.298 158.039,146.104 156.959,148.981 155.850 L 154.213 153.835 155.341 154.241 C 160.088 155.954,169.140 158.129,175.083 158.986 C 198.307 162.334,216.000 154.804,216.000 141.572 C 216.000 139.671,216.025 139.675,214.516 141.338 C 204.856 151.984,187.960 155.037,168.118 149.720 L 166.487 149.282 168.528 148.378 C 170.677 147.425,188.523 139.798,197.165 136.138 C 204.770 132.918,208.129 132.315,212.333 133.416 M271.083 193.814 C 266.873 194.910,266.929 200.774,271.160 201.681 C 274.010 202.292,276.608 199.539,275.847 196.715 C 275.312 194.734,272.988 193.318,271.083 193.814 M252.833 194.432 C 248.940 196.114,250.463 201.837,254.702 201.452 C 259.314 201.034,258.965 194.162,254.333 194.177 C 253.829 194.178,253.154 194.293,252.833 194.432 M78.833 253.911 C 73.315 254.960,69.919 260.260,71.496 265.365 C 72.509 268.645,74.648 270.004,81.798 271.907 C 85.864 272.990,87.275 274.277,86.142 275.869 C 84.438 278.261,79.450 277.377,75.476 273.978 L 74.535 273.174 72.401 275.462 C 71.227 276.720,70.084 277.952,69.861 278.200 L 69.454 278.650 70.000 279.116 C 80.249 287.880,95.517 283.739,93.485 272.747 C 92.758 268.813,90.121 266.977,82.000 264.752 C 79.204 263.986,78.197 263.239,78.413 262.091 C 78.869 259.659,83.975 259.800,87.708 262.349 C 88.256 262.723,88.763 262.966,88.835 262.889 C 88.906 262.813,89.808 261.558,90.838 260.101 L 92.712 257.453 92.315 257.150 C 88.985 254.620,82.853 253.147,78.833 253.911 M144.500 253.978 C 132.541 256.597,128.293 271.362,137.108 279.671 C 146.908 288.907,163.167 282.169,163.167 268.871 C 163.167 259.144,154.066 251.884,144.500 253.978 M210.463 253.792 L 199.676 253.836 199.838 254.262 C 200.067 254.865,200.057 282.582,199.827 283.011 C 199.658 283.328,199.832 283.333,210.744 283.333 L 221.833 283.333 221.833 279.917 L 221.833 276.500 214.583 276.500 L 207.333 276.500 207.333 274.250 L 207.333 272.000 213.333 272.000 L 219.333 272.000 219.333 268.750 L 219.333 265.500 213.250 265.500 L 207.167 265.500 207.167 263.167 L 207.167 260.833 214.250 260.833 L 221.333 260.833 221.335 258.125 C 221.336 256.635,221.384 255.023,221.441 254.542 C 221.500 254.055,221.481 253.685,221.398 253.707 C 221.317 253.729,216.396 253.767,210.463 253.792 M227.733 254.066 C 227.680 254.205,227.756 254.488,227.902 254.696 C 228.139 255.034,228.167 256.528,228.167 268.818 L 228.167 282.562 227.795 282.958 L 227.423 283.353 235.753 283.293 C 245.088 283.225,245.174 283.215,247.680 281.898 C 253.173 279.011,253.505 270.707,248.230 268.124 L 247.543 267.788 248.381 267.102 C 252.990 263.333,250.502 256.162,243.917 254.232 C 242.488 253.813,227.888 253.664,227.733 254.066 M258.000 254.230 C 258.000 254.448,258.112 254.719,258.250 254.833 C 258.700 255.207,258.619 282.340,258.167 282.750 C 257.562 283.297,257.798 283.333,262.000 283.333 C 264.292 283.333,266.164 283.277,266.161 283.208 C 266.158 283.140,266.046 282.938,265.911 282.760 C 265.467 282.173,265.552 255.357,266.000 254.788 C 266.730 253.860,266.617 253.833,261.903 253.833 L 258.000 253.833 258.000 254.230 M303.834 253.948 C 303.835 254.023,303.985 254.308,304.167 254.583 C 304.688 255.371,304.688 282.445,304.167 282.917 C 303.357 283.649,303.483 283.667,309.655 283.667 C 318.483 283.667,321.666 282.917,325.104 280.030 C 334.629 272.030,331.189 257.795,318.891 254.312 C 317.530 253.927,303.832 253.596,303.834 253.948 M98.915 254.170 C 98.857 254.264,99.002 254.569,99.238 254.850 L 99.667 255.359 99.667 269.313 C 99.667 279.944,99.619 283.314,99.467 283.467 C 99.311 283.622,100.175 283.667,103.356 283.667 C 107.903 283.667,107.856 283.676,107.163 282.887 L 106.667 282.322 106.667 277.078 L 106.667 271.833 112.759 271.833 L 118.850 271.833 118.800 277.216 C 118.756 282.009,118.718 282.648,118.458 283.044 C 118.298 283.288,118.167 283.528,118.167 283.577 C 118.167 283.627,120.042 283.667,122.333 283.667 C 124.625 283.667,126.500 283.622,126.500 283.568 C 126.500 283.514,126.350 283.279,126.167 283.045 C 125.840 282.630,125.833 282.369,125.833 269.000 C 125.833 255.631,125.840 255.370,126.167 254.955 C 126.895 254.028,126.777 254.000,122.142 254.000 C 117.783 254.000,117.364 254.083,118.058 254.807 C 118.934 255.722,119.000 256.136,119.000 260.745 L 119.000 265.000 112.917 265.000 L 106.833 265.000 106.833 260.196 L 106.833 255.391 107.250 255.000 C 107.729 254.550,107.781 254.246,107.403 254.101 C 106.936 253.922,99.028 253.986,98.915 254.170 M169.162 254.782 C 169.594 255.587,169.704 282.125,169.278 282.755 C 168.633 283.708,168.470 283.667,172.922 283.667 C 177.270 283.667,177.525 283.613,176.667 282.878 C 176.351 282.608,176.333 282.386,176.333 278.796 L 176.333 275.000 178.646 275.000 L 180.960 275.000 183.771 279.330 L 186.583 283.659 190.886 283.663 L 195.189 283.667 194.807 283.125 C 194.597 282.827,192.899 280.532,191.035 278.025 C 189.171 275.517,187.669 273.448,187.698 273.425 C 187.726 273.403,188.161 273.167,188.662 272.901 C 191.426 271.435,193.249 268.049,193.230 264.417 C 193.204 259.635,190.853 256.289,186.415 254.721 L 185.083 254.250 176.954 254.201 L 168.825 254.152 169.162 254.782 M273.339 254.284 C 273.342 254.357,273.452 254.604,273.583 254.833 C 273.946 255.467,273.941 282.427,273.578 282.907 C 273.016 283.650,273.096 283.667,277.333 283.667 C 281.570 283.667,281.978 283.576,281.083 282.833 C 280.874 282.660,280.833 281.998,280.833 278.808 L 280.833 274.991 283.109 275.037 L 285.385 275.083 288.160 279.333 L 290.936 283.583 295.218 283.628 C 297.573 283.652,299.500 283.636,299.500 283.591 C 299.500 283.547,298.506 282.176,297.290 280.547 C 296.075 278.917,294.385 276.648,293.535 275.505 L 291.990 273.427 292.953 272.940 C 295.855 271.474,297.852 267.611,297.614 263.918 C 297.315 259.256,295.003 256.140,290.786 254.715 L 289.417 254.252 281.375 254.202 C 276.952 254.174,273.336 254.211,273.339 254.284 M242.662 260.804 C 244.044 261.333,244.589 262.889,243.829 264.135 C 243.258 265.071,242.782 265.167,238.672 265.167 L 235.000 265.167 235.000 262.833 L 235.000 260.500 238.458 260.509 C 241.308 260.517,242.048 260.568,242.662 260.804 M149.884 260.915 C 156.055 262.523,158.153 270.040,153.680 274.513 C 149.149 279.045,141.365 276.924,139.749 270.718 C 138.221 264.855,143.905 259.358,149.884 260.915 M183.730 261.039 C 186.301 261.809,187.166 265.212,185.271 267.106 C 184.220 268.158,183.413 268.333,179.636 268.333 L 176.500 268.333 176.500 264.583 L 176.500 260.833 179.772 260.833 C 181.881 260.833,183.288 260.906,183.730 261.039 M288.923 261.419 C 291.355 262.924,291.236 266.538,288.713 267.777 C 287.763 268.244,287.702 268.251,284.292 268.304 L 280.833 268.357 280.833 264.584 L 280.833 260.810 284.472 260.863 L 288.111 260.917 288.923 261.419 M317.393 261.098 C 325.521 263.195,325.334 274.314,317.137 276.247 C 316.466 276.405,315.222 276.496,313.708 276.498 L 311.333 276.500 311.333 268.667 L 311.333 260.833 313.851 260.833 C 315.607 260.833,316.678 260.913,317.393 261.098 M243.917 272.047 C 245.629 273.010,245.531 275.340,243.739 276.250 C 243.148 276.550,242.691 276.589,239.125 276.636 L 235.167 276.688 235.167 274.178 L 235.167 271.667 239.208 271.669 C 243.088 271.672,243.277 271.687,243.917 272.047 M144.629 297.118 C 142.103 302.529,139.279 308.638,139.152 308.964 L 139.004 309.344 140.942 309.297 L 142.879 309.250 143.322 308.083 L 143.765 306.917 146.398 306.917 L 149.031 306.917 149.539 308.125 L 150.047 309.333 151.940 309.333 C 152.981 309.333,153.833 309.277,153.832 309.208 C 153.831 309.140,152.422 306.046,150.700 302.333 L 147.570 295.583 146.480 295.535 L 145.390 295.486 144.629 297.118 M157.000 302.417 L 157.000 309.333 158.747 309.333 L 160.493 309.333 160.538 305.782 L 160.583 302.231 163.833 305.772 L 167.083 309.313 168.208 309.323 L 169.333 309.333 169.333 302.417 L 169.333 295.500 167.583 295.500 L 165.833 295.500 165.833 299.090 L 165.833 302.681 162.634 299.090 L 159.435 295.500 158.218 295.500 L 157.000 295.500 157.000 302.417 M177.585 297.201 C 175.560 301.527,172.000 309.229,172.000 309.284 C 172.000 309.317,172.869 309.323,173.931 309.297 L 175.862 309.250 176.311 308.083 L 176.759 306.917 179.395 306.917 L 182.031 306.917 182.539 308.125 L 183.047 309.333 184.940 309.333 C 185.981 309.333,186.832 309.277,186.830 309.208 C 186.829 309.140,185.420 306.046,183.700 302.333 L 180.572 295.583 179.480 295.535 L 178.388 295.486 177.585 297.201 M193.667 295.683 C 190.119 296.376,187.694 300.099,188.320 303.892 C 189.133 308.814,194.307 310.947,199.208 308.381 L 200.333 307.792 200.333 304.729 L 200.333 301.667 197.500 301.667 L 194.667 301.667 194.667 303.250 L 194.667 304.833 195.833 304.833 L 197.000 304.833 197.000 305.399 C 197.000 306.081,196.824 306.168,195.445 306.163 C 192.935 306.154,191.304 304.233,191.800 301.871 C 192.345 299.272,195.062 298.197,197.120 299.767 C 197.777 300.268,197.901 300.217,199.167 298.917 L 200.083 297.976 199.417 297.410 C 197.652 295.911,195.622 295.301,193.667 295.683 M204.768 295.792 C 204.843 295.952,204.932 299.065,204.964 302.708 L 205.024 309.333 209.345 309.333 L 213.667 309.333 213.667 307.750 L 213.667 306.167 210.908 306.167 L 208.150 306.167 208.200 305.208 L 208.250 304.250 210.458 304.203 L 212.667 304.157 212.667 302.620 L 212.667 301.083 210.500 301.142 L 208.333 301.200 208.333 300.100 L 208.333 299.000 211.000 299.000 L 213.667 299.000 213.667 297.250 L 213.667 295.500 209.149 295.500 C 204.905 295.500,204.639 295.518,204.768 295.792 M237.012 296.041 C 237.097 296.338,237.167 299.450,237.167 302.957 L 237.167 309.333 241.500 309.333 L 245.833 309.333 245.833 307.750 L 245.833 306.167 243.167 306.167 L 240.500 306.167 240.500 305.167 L 240.500 304.167 242.750 304.167 L 245.000 304.167 245.000 302.625 L 245.000 301.083 242.750 301.141 L 240.500 301.199 240.500 300.100 L 240.500 299.000 243.167 299.000 L 245.833 299.000 245.833 297.250 L 245.833 295.500 241.345 295.500 L 236.857 295.500 237.012 296.041 M250.833 302.417 L 250.833 309.333 252.583 309.333 L 254.333 309.333 254.335 305.708 L 254.337 302.083 255.046 302.833 C 255.435 303.246,256.943 304.877,258.397 306.458 L 261.039 309.333 262.186 309.333 L 263.333 309.333 263.333 302.417 L 263.333 295.500 261.503 295.500 L 259.673 295.500 259.628 299.009 L 259.583 302.518 256.500 299.020 L 253.417 295.522 252.125 295.511 L 250.833 295.500 250.833 302.417 M121.333 302.577 L 121.333 309.500 123.080 309.500 L 124.827 309.500 124.872 306.069 L 124.917 302.639 126.385 304.806 C 128.404 307.783,128.133 307.788,130.176 304.736 C 130.999 303.506,131.746 302.500,131.836 302.500 C 131.938 302.500,132.000 303.791,132.000 305.917 L 132.000 309.333 133.833 309.333 L 135.667 309.333 135.667 302.500 L 135.667 295.667 134.208 295.671 L 132.750 295.676 130.583 298.502 C 129.392 300.056,128.364 301.310,128.299 301.289 C 128.234 301.267,127.257 300.012,126.128 298.500 L 124.075 295.750 122.704 295.702 L 121.333 295.653 121.333 302.577 M218.000 302.583 L 218.000 309.500 219.750 309.500 L 221.500 309.500 221.500 306.060 L 221.500 302.620 223.042 304.850 C 225.000 307.683,224.786 307.685,226.774 304.800 L 228.417 302.417 228.462 305.875 L 228.507 309.333 230.337 309.333 L 232.167 309.333 232.167 302.500 L 232.167 295.667 230.777 295.667 L 229.387 295.667 227.235 298.493 C 226.052 300.048,225.035 301.323,224.977 301.326 C 224.918 301.330,223.916 300.058,222.750 298.500 L 220.630 295.667 219.315 295.667 L 218.000 295.667 218.000 302.583 M267.000 297.500 L 267.000 299.167 268.917 299.167 L 270.833 299.167 270.833 304.250 L 270.833 309.333 272.583 309.333 L 274.333 309.333 274.333 304.250 L 274.333 299.167 276.083 299.167 L 277.833 299.167 277.833 297.500 L 277.833 295.833 272.417 295.833 L 267.000 295.833 267.000 297.500 M100.833 299.932 C 97.143 301.531,98.239 307.238,102.235 307.226 C 105.376 307.217,107.074 303.798,105.247 301.162 C 104.345 299.860,102.309 299.293,100.833 299.932 M294.410 299.980 C 292.628 300.790,291.794 303.156,292.629 305.032 C 294.275 308.730,299.647 307.526,299.663 303.457 C 299.674 300.652,296.929 298.836,294.410 299.980 M147.116 302.208 L 147.779 304.083 146.368 304.132 C 144.606 304.192,144.677 304.354,145.510 302.179 C 146.375 299.923,146.309 299.922,147.116 302.208 M180.118 302.250 L 180.775 304.167 179.304 304.167 C 178.495 304.167,177.833 304.117,177.833 304.056 C 177.833 303.786,179.230 300.333,179.339 300.333 C 179.406 300.333,179.756 301.196,180.118 302.250 " stroke="none" fill="#0c202d" fill-rule="evenodd"></path><path id="path2" d="M231.417 88.571 C 225.402 90.126,220.133 95.435,217.176 102.917 L 216.518 104.583 217.228 105.333 C 219.433 107.663,222.157 112.755,225.251 120.333 C 228.706 128.794,230.036 136.159,228.832 140.167 C 228.626 140.854,228.462 141.792,228.469 142.250 C 228.597 150.961,228.562 151.433,227.482 155.500 C 225.046 164.680,217.670 173.732,207.917 179.511 C 207.092 179.999,205.938 180.802,205.354 181.293 C 198.410 187.131,185.857 191.402,171.168 192.924 C 169.748 193.071,168.567 193.211,168.543 193.235 C 168.424 193.354,172.646 194.529,174.250 194.824 C 180.820 196.030,189.120 195.606,196.833 193.669 C 197.979 193.382,199.029 193.119,199.167 193.086 C 199.304 193.053,199.417 193.014,199.417 193.000 C 199.417 192.973,199.686 192.899,200.250 192.769 C 200.433 192.727,200.583 192.681,200.583 192.667 C 200.583 192.653,200.696 192.615,200.833 192.583 C 201.205 192.496,204.252 191.436,205.542 190.944 C 206.160 190.708,206.668 190.568,206.669 190.632 C 206.671 190.697,206.727 190.664,206.794 190.558 C 206.862 190.453,207.067 190.340,207.250 190.308 C 207.433 190.276,207.628 190.190,207.682 190.117 C 207.736 190.043,207.942 189.971,208.140 189.956 C 208.338 189.941,208.500 189.882,208.500 189.825 C 208.500 189.655,209.345 189.321,209.512 189.424 C 209.597 189.477,209.667 189.451,209.667 189.368 C 209.667 189.285,210.158 189.008,210.757 188.753 C 219.426 185.069,230.164 175.013,234.254 166.750 C 240.748 153.630,239.130 142.494,227.512 120.333 C 222.430 110.641,224.468 96.971,232.126 89.375 C 232.796 88.710,233.248 88.170,233.130 88.175 C 233.013 88.179,232.242 88.358,231.417 88.571 M216.050 141.167 C 216.050 141.671,216.081 141.877,216.119 141.625 C 216.158 141.373,216.158 140.960,216.119 140.708 C 216.081 140.456,216.050 140.662,216.050 141.167 M168.257 148.511 C 166.427 149.331,166.482 149.271,167.358 149.507 C 179.632 152.815,191.576 153.136,200.026 150.386 C 202.058 149.725,202.226 149.572,200.646 149.821 C 190.618 151.406,177.393 150.732,171.167 148.319 C 169.661 147.736,170.041 147.711,168.257 148.511 M138.959 159.885 C 137.699 160.453,136.668 160.960,136.667 161.014 C 136.667 161.113,140.924 162.318,143.917 163.066 C 149.188 164.383,155.780 165.595,161.250 166.254 C 169.812 167.285,180.428 167.171,186.917 165.977 C 188.081 165.763,188.077 165.762,184.000 165.568 C 172.379 165.013,157.468 162.719,144.032 159.419 C 141.130 158.706,141.693 158.654,138.959 159.885 M110.788 160.787 C 111.084 160.824,111.609 160.824,111.955 160.788 C 112.300 160.752,112.058 160.722,111.417 160.721 C 110.775 160.721,110.492 160.750,110.788 160.787 M101.336 165.589 C 101.564 165.832,102.423 166.482,103.245 167.033 C 116.972 176.229,155.481 183.017,178.655 180.325 C 180.983 180.054,187.269 178.953,187.436 178.787 C 187.456 178.766,182.885 178.748,177.278 178.746 C 148.777 178.736,121.681 174.031,102.265 165.721 L 100.923 165.146 101.336 165.589 M175.708 174.448 C 175.869 174.490,176.131 174.490,176.292 174.448 C 176.452 174.406,176.321 174.372,176.000 174.372 C 175.679 174.372,175.548 174.406,175.708 174.448 M194.542 197.786 C 194.794 197.824,195.206 197.824,195.458 197.786 C 195.710 197.748,195.504 197.717,195.000 197.717 C 194.496 197.717,194.290 197.748,194.542 197.786 M109.833 214.146 C 105.030 215.700,105.230 219.204,110.167 219.991 C 111.729 220.241,178.008 220.233,179.172 219.983 C 181.874 219.404,182.593 215.892,180.317 214.386 L 179.608 213.917 145.179 213.883 C 112.582 213.852,110.701 213.866,109.833 214.146 M219.731 214.151 C 217.090 215.354,217.512 219.335,220.350 219.989 C 221.340 220.218,286.022 220.229,287.417 220.001 C 291.702 219.301,292.380 216.243,288.638 214.489 L 287.417 213.917 253.917 213.878 C 221.475 213.840,220.395 213.849,219.731 214.151 M113.050 225.679 C 108.699 227.058,108.931 230.707,113.419 231.488 C 114.807 231.730,178.268 231.731,179.317 231.489 C 182.219 230.821,182.547 226.741,179.791 225.590 C 178.713 225.139,114.482 225.226,113.050 225.679 M219.747 225.565 C 217.141 226.705,217.502 230.867,220.263 231.507 C 221.246 231.735,283.016 231.714,284.253 231.485 C 288.306 230.736,288.922 227.799,285.392 226.055 L 284.101 225.417 252.175 225.381 C 226.028 225.351,220.159 225.384,219.747 225.565 M123.633 237.132 C 120.300 238.343,119.693 241.172,122.473 242.540 L 123.576 243.083 151.663 243.083 C 179.510 243.083,179.755 243.080,180.321 242.748 C 182.197 241.646,182.065 238.035,180.115 237.109 C 179.205 236.678,124.823 236.700,123.633 237.132 M219.319 237.208 C 217.602 238.349,217.546 241.492,219.221 242.734 L 219.691 243.083 247.066 243.083 L 274.440 243.083 275.424 242.580 C 277.942 241.292,277.704 238.844,274.917 237.360 L 274.083 236.917 246.986 236.873 L 219.888 236.829 219.319 237.208 M158.333 257.719 C 158.333 257.748,158.577 257.991,158.875 258.260 L 159.417 258.750 158.927 258.208 C 158.471 257.703,158.333 257.590,158.333 257.719 M330.542 268.583 C 330.544 268.950,330.578 269.080,330.618 268.873 C 330.658 268.666,330.656 268.366,330.615 268.206 C 330.573 268.047,330.540 268.217,330.542 268.583 M210.970 276.458 C 213.015 276.485,216.315 276.485,218.303 276.458 C 220.291 276.432,218.617 276.410,214.583 276.410 C 210.550 276.410,208.924 276.432,210.970 276.458 M169.410 302.417 C 169.410 306.267,169.432 307.818,169.458 305.864 C 169.485 303.910,169.485 300.760,169.458 298.864 C 169.431 296.968,169.410 298.567,169.410 302.417 M274.407 304.333 C 274.407 307.129,274.430 308.273,274.458 306.875 C 274.486 305.477,274.486 303.190,274.458 301.792 C 274.430 300.394,274.407 301.537,274.407 304.333 " stroke="none" fill="#7db8c6" fill-rule="evenodd"></path><path id="path3" d="M203.961 101.121 C 204.261 101.158,204.711 101.157,204.961 101.119 C 205.212 101.081,204.967 101.051,204.417 101.052 C 203.867 101.053,203.662 101.084,203.961 101.121 M216.455 104.778 C 215.957 105.624,213.891 112.872,212.996 116.917 C 212.505 119.132,211.296 125.864,211.378 125.922 C 211.399 125.937,212.086 126.080,212.904 126.239 C 220.394 127.697,225.991 133.058,227.968 140.671 L 228.281 141.875 228.538 141.229 C 230.645 135.935,228.033 125.028,221.574 112.148 C 219.648 108.307,216.795 104.200,216.455 104.778 M205.448 180.766 C 193.505 186.981,168.578 190.232,154.583 187.399 C 152.455 186.969,161.038 190.775,166.039 192.479 C 167.376 192.935,168.496 193.282,168.528 193.250 C 168.560 193.218,169.748 193.071,171.168 192.924 C 185.965 191.390,199.138 186.862,205.583 181.092 C 206.547 180.230,206.535 180.201,205.448 180.766 M164.208 180.948 C 164.369 180.990,164.631 180.990,164.792 180.948 C 164.952 180.906,164.821 180.872,164.500 180.872 C 164.179 180.872,164.048 180.906,164.208 180.948 M169.708 180.948 C 169.869 180.990,170.131 180.990,170.292 180.948 C 170.452 180.906,170.321 180.872,170.000 180.872 C 169.679 180.872,169.548 180.906,169.708 180.948 M240.742 187.375 L 240.083 188.083 240.792 187.425 C 241.450 186.812,241.577 186.667,241.450 186.667 C 241.423 186.667,241.105 186.985,240.742 187.375 M193.294 197.785 C 193.501 197.824,193.801 197.823,193.960 197.781 C 194.120 197.739,193.950 197.707,193.583 197.709 C 193.217 197.711,193.086 197.745,193.294 197.785 M196.127 197.785 C 196.334 197.824,196.634 197.823,196.794 197.781 C 196.953 197.739,196.783 197.707,196.417 197.709 C 196.050 197.711,195.920 197.745,196.127 197.785 M198.625 204.790 C 199.106 204.823,199.894 204.823,200.375 204.790 C 200.856 204.756,200.463 204.728,199.500 204.728 C 198.537 204.728,198.144 204.756,198.625 204.790 M144.458 205.787 C 144.756 205.824,145.244 205.824,145.542 205.787 C 145.840 205.750,145.596 205.720,145.000 205.720 C 144.404 205.720,144.160 205.750,144.458 205.787 M148.625 205.787 C 148.923 205.824,149.410 205.824,149.708 205.787 C 150.006 205.750,149.762 205.720,149.167 205.720 C 148.571 205.720,148.327 205.750,148.625 205.787 M203.247 225.167 C 203.247 234.654,203.267 238.535,203.292 233.792 C 203.316 229.048,203.316 221.285,203.292 216.542 C 203.267 211.798,203.247 215.679,203.247 225.167 M195.872 210.167 C 195.872 210.487,195.906 210.619,195.948 210.458 C 195.990 210.298,195.990 210.035,195.948 209.875 C 195.906 209.715,195.872 209.846,195.872 210.167 M118.906 260.667 C 118.906 263.096,118.929 264.090,118.958 262.875 C 118.986 261.660,118.986 259.673,118.958 258.458 C 118.929 257.244,118.906 258.237,118.906 260.667 M235.066 262.833 C 235.066 264.162,235.092 264.706,235.124 264.042 C 235.155 263.377,235.155 262.290,235.124 261.625 C 235.092 260.960,235.066 261.504,235.066 262.833 M118.741 277.000 C 118.741 279.887,118.764 281.069,118.791 279.625 C 118.819 278.181,118.819 275.819,118.791 274.375 C 118.764 272.931,118.741 274.112,118.741 277.000 M176.367 278.782 C 176.349 280.908,176.390 282.682,176.458 282.725 C 176.527 282.767,176.564 281.628,176.540 280.193 C 176.461 275.376,176.401 274.889,176.367 278.782 M221.904 279.917 C 221.904 281.842,221.928 282.606,221.958 281.616 C 221.987 280.626,221.987 279.051,221.958 278.116 C 221.928 277.181,221.904 277.992,221.904 279.917 M156.910 302.417 C 156.910 306.267,156.932 307.818,156.958 305.864 C 156.985 303.910,156.985 300.760,156.958 298.864 C 156.931 296.968,156.910 298.567,156.910 302.417 M204.909 303.167 C 204.909 306.604,204.931 308.010,204.958 306.292 C 204.985 304.573,204.985 301.760,204.958 300.042 C 204.931 298.323,204.909 299.729,204.909 303.167 M267.965 299.290 C 268.541 299.323,269.441 299.323,269.965 299.290 C 270.488 299.257,270.017 299.230,268.917 299.230 C 267.817 299.231,267.388 299.258,267.965 299.290 M275.214 299.290 C 275.745 299.323,276.570 299.323,277.048 299.289 C 277.526 299.256,277.092 299.229,276.083 299.229 C 275.075 299.229,274.684 299.257,275.214 299.290 M212.701 302.537 L 212.667 304.157 210.458 304.203 L 208.250 304.250 208.238 305.167 L 208.225 306.083 208.288 305.208 L 208.350 304.333 210.514 304.333 C 213.030 304.333,212.869 304.470,212.791 302.403 L 212.735 300.917 212.701 302.537 M196.042 301.624 C 196.844 301.655,198.156 301.655,198.958 301.624 C 199.760 301.594,199.104 301.569,197.500 301.569 C 195.896 301.569,195.240 301.594,196.042 301.624 M241.534 304.290 C 242.149 304.322,243.199 304.322,243.868 304.291 C 244.536 304.259,244.033 304.233,242.750 304.232 C 241.467 304.232,240.920 304.258,241.534 304.290 M245.894 307.750 C 245.895 308.667,245.923 309.020,245.956 308.536 C 245.990 308.052,245.990 307.302,245.956 306.869 C 245.921 306.437,245.894 306.833,245.894 307.750 M144.667 306.946 C 146.899 307.067,149.129 307.073,149.058 306.958 C 149.015 306.890,147.804 306.848,146.365 306.865 C 144.927 306.882,144.162 306.919,144.667 306.946 M177.667 306.946 C 179.899 307.067,182.129 307.073,182.058 306.958 C 182.015 306.890,180.804 306.848,179.365 306.865 C 177.927 306.882,177.162 306.919,177.667 306.946 M122.214 309.623 C 122.745 309.657,123.570 309.656,124.048 309.623 C 124.526 309.589,124.092 309.562,123.083 309.562 C 122.075 309.563,121.684 309.590,122.214 309.623 M218.881 309.623 C 219.412 309.657,220.237 309.656,220.714 309.623 C 221.192 309.589,220.758 309.562,219.750 309.562 C 218.742 309.563,218.351 309.590,218.881 309.623 " stroke="none" fill="#5ea1b1" fill-rule="evenodd"></path><path id="path4" d="M234.583 88.010 L 233.417 88.143 231.823 89.790 C 224.214 97.655,222.494 111.118,227.846 120.918 C 235.579 135.078,238.697 145.414,237.850 154.083 C 236.491 168.007,228.394 178.662,211.833 188.320 L 210.917 188.854 211.750 188.750 C 215.760 188.247,225.846 184.680,235.751 180.263 L 239.750 178.480 240.777 177.198 C 244.240 172.878,247.301 166.860,248.582 161.855 C 250.564 154.110,249.674 142.877,246.415 134.500 C 244.225 128.872,243.700 126.138,243.887 121.333 C 244.277 111.281,250.471 101.740,258.880 98.234 C 260.400 97.601,260.399 97.636,258.914 96.221 C 252.353 89.968,243.529 86.991,234.583 88.010 M242.641 90.840 C 245.083 91.917,246.322 95.122,245.224 97.520 C 242.925 102.540,235.509 100.987,235.502 95.485 C 235.497 91.737,239.204 89.325,242.641 90.840 M241.796 91.593 C 240.503 92.295,240.796 94.400,242.236 94.761 C 244.129 95.236,245.230 92.478,243.503 91.585 C 242.898 91.272,242.383 91.274,241.796 91.593 M205.487 133.247 C 204.792 133.364,203.780 133.587,203.237 133.743 C 202.454 133.968,180.984 143.019,171.844 146.978 L 169.939 147.803 170.565 148.065 C 176.890 150.708,190.402 151.413,201.365 149.672 C 204.784 149.130,211.291 144.881,214.980 140.783 C 216.121 139.516,216.358 140.013,216.012 142.953 C 214.592 155.026,198.145 161.990,177.343 159.325 C 169.888 158.369,160.520 156.208,155.124 154.198 L 154.250 153.872 147.886 156.311 L 141.523 158.750 142.636 159.039 C 158.382 163.122,183.577 166.547,189.678 165.433 C 195.822 164.311,203.809 162.058,209.083 159.960 C 210.000 159.595,210.859 159.254,210.992 159.201 C 211.289 159.083,210.574 160.362,209.614 161.667 C 202.440 171.414,185.646 176.038,165.167 173.903 C 150.009 172.323,134.767 169.414,124.981 166.234 L 122.711 165.496 120.064 165.738 C 114.056 166.288,108.767 166.234,103.686 165.570 C 102.642 165.434,101.760 165.351,101.726 165.385 C 101.691 165.420,102.770 165.882,104.123 166.414 C 121.164 173.101,140.977 177.079,164.500 178.534 C 169.022 178.814,185.834 178.816,187.921 178.537 C 200.918 176.799,214.283 168.008,219.016 158.083 C 225.937 143.570,219.068 130.959,205.487 133.247 M168.125 166.951 C 168.331 166.991,168.669 166.991,168.875 166.951 C 169.081 166.911,168.912 166.879,168.500 166.879 C 168.087 166.879,167.919 166.911,168.125 166.951 " stroke="none" fill="#f7fbfb" fill-rule="evenodd"></path></g></svg>