<?xml version="1.0" encoding="utf-8"?>
<!-- Dark Mode Optimized Version - Shorebird Logo -->
<svg version="1.1" xmlns="http://www.w3.org/2000/svg" xmlns:xlink="http://www.w3.org/1999/xlink" x="0px" y="0px"
	 width="9477.525px" height="9477.525px" viewBox="0 0 9477.525 9477.525" enable-background="new 0 0 9477.525 9477.525"
	 xml:space="preserve">
<g id="Layer_1">
</g>
<g id="Layer_33" display="none">
	<rect display="inline" fill="#C8D0D2" width="9477.525" height="9477.525"/>
</g>
<g id="Layer_2">
	<path fill="#B9D4DD" d="M2335.784,4623.129c0,0,894.519,439.624,1784.673,158.177c0,0,101.45,38.179,257.446,52.362
		c0,0,25.636,2.045,40.363,41.732c0,0,53.999,115.354,50.726,305.166l0.142,561.255h173.307V4997.3c0,0-7.364-137.45,45.816-146.449
		h74.453c0,0,27.002-1.365,36.816,25.362c0,0,13.909,30.271,16.363,53.181c0,0,0,34.362,0,98.996v713.433h166.904v-703.614
		c0,0,1.637-35.999,13.091-83.452c0,0,32.729-98.726,60.546-158.45c0,0,335.441-57.543,637.069-345.534
		c0,0,277.084-259.629,359.989-599.982c13.397-55.005,19.856-111.988,24.442-168.305c10.479-128.67,1.873-259.314-30.575-384.433
		c-27.559-106.272-78.357-205.296-92.935-315.051c-14.781-111.339,6.948-226.346,52.759-328.266
		c34.749-77.308,100.217-136.375,175.763-172.847c83.717-40.417,173.021-64.873,264.699-79.781
		c73.11-11.889,149.301-14.671,223.283-13.089c0,0,347.991,6.543,574.893,106.905c0,0,49.91,17.455,0-46.362
		c0,0-153.817-229.083-862.341-302.718c0,0-67.906-9-125.178-22.09c0,0-20.451-3-46.088-22.636c0,0-231.811-222.537-516.529-247.628
		c0,0-244.903-33.272-549.258,136.904c0,0-431.986,283.083-793.611,101.452c0,0-36.544-19.638-16.908,20.181
		c0,0,155.451,317.446,578.71,278.175c0,0,55.088,290.717-147.814,613.07c0,0-188.176,104.725-656.162,305.991
		c0,0-762.522,323.99-1094.694,438.531c0,0-337.625,132.543-732.523,6.001c0,0-254.175-81.816-448.35-158.178
		c0,0-70.088-27.817-27.544,45.816c0,0,193.903,250.356,550.619,467.986c0,0,296.173,173.449,698.706,242.174
		c0,0,32.181,4.091-3.272,29.454c0,0-176.722,125.996-705.251,217.63C2348.33,4599.676,2312.604,4610.039,2335.784,4623.129z"/>
</g>
<g id="Layer_3">
	<path fill="#F1F9FB" d="M2389.237,3912.425c0,0,202.901,45.271,519.257,8.181c0,0,354.535,137.452,1081.058,207.267
		c0,0,783.247,76.36,1014.514-357.808c0,0-618.526,279.81-1258.869,157.086c0,0-306.537-43.634-488.713-103.633l98.179-2.728
		l-3.272-58.907c0,0,165.268-63.816,302.718-116.178c0,0,451.076,167.994,859.064,139.631c0,0,628.348-37.087,606.529-460.347
		c0,0,0.556-24.001-25.638,9.816c0,0-142.359,184.358-430.351,246.539l-303.263,4.362l-268.355-35.999l-81.816-41.453
		c0,0,416.168-178.358,779.43-332.171c0,0,247.083-94.906,395.987,83.452c0,0,157.633,176.72,0,495.256
		c0,0-175.085,394.898-773.976,483.259c0,0-736.341,98.179-1403.957-98.179C3007.764,4139.872,2570.868,4059.693,2389.237,3912.425z
		"/>
</g>
<g id="Layer_4">
	<path fill="#5598A9" d="M3946.189,3536.891l79.462-35.221c0,0,231.354,121.156,762.789,42.599
		C4788.44,3544.269,4504.445,3692.614,3946.189,3536.891z"/>
</g>
<g id="Layer_5">
	<path fill="#5598A9" d="M3351.39,3761.884c0,0,654.724,169.375,1116.883,162.412c0,0-455.813,123.398-1236.333-108.958
		L3351.39,3761.884z"/>
</g>
<g id="Layer_6">
	<path fill="#5598A9" d="M2389.237,3912.425c0,0,143.996,173.996,842.702,304.9c0,0,755.408,148.219,1226.677,13.021
		C4458.616,4230.346,3351.39,4316.594,2389.237,3912.425z"/>
</g>
<g id="Layer_7">
	<path fill="#66A4B1" d="M3645.926,4437.681c0,0,655.617,122.177,1246.871-165.814l113.452,15.367
		c0,0-329.442,276.986-1018.877,290.077C3987.372,4577.311,3832.466,4534.224,3645.926,4437.681z"/>
</g>
<g id="Layer_8">
</g>
<g id="Layer_9">
	<path fill="#5598A9" d="M3987.372,4577.311c0,0,613.071-30.545,905.425-305.444c0,0,597.797-297.809,517.075-901.063
		c0,0-22.909-170.176-26.182-179.994s-150.541-271.628-160.358-284.719c-9.818-13.09-121.087-189.812-121.087-189.812l28.363-237.81
		c0,0,102.541-352.899,403.623-390.534v366.534v438.532c0,0,124.359,157.086,150.541,215.993
		c26.181,58.907,52.361,499.072,52.361,499.072l-196.357,610.348l-386.17,206.174l-167.993,50.183
		C4986.613,4474.771,4436.815,4749.667,3987.372,4577.311z"/>
</g>
<g id="Layer_10">
	<path fill="#66A4B1" d="M5130.608,2478.47c0,0,69.815,43.634,194.175,342.534c0,0,169.713,370.967,83.766,540.017
		c0,0-53.226-334.935-400.12-376.387C5008.429,2984.634,5043.341,2709.736,5130.608,2478.47z"/>
</g>
<g id="Layer_11">
	<path fill="#91C1CF" d="M4089.546,4608.743c0,0,399.625,140.927,897.063,40.567c0,0,434.17-91.632,693.797-421.076
		l-437.832,149.389l-236.325,91.282C5006.249,4468.905,4527.712,4709.988,4089.546,4608.743z"/>
</g>
<g id="Layer_12">
	<path fill="#F1F9FB" d="M4994.268,4474.684c0,0,153.244-1,686.139-246.449c0,0,250.902-269.453,235.63-620.167
		c0,0,4.365-243.808-98.723-476.164c0,0-108.543-254.173,28.91-520.348c0,0,87.268-212.721,321.261-297.809
		c0,0-227.45-284.714-633.253-225.812c0,0-202.903,143.992-209.448,469.074c0,0-8.182,182.179,88.361,334.356
		c0,0,175.629,326.715,208.354,518.71c0,0,115.632,421.08-244.356,783.252C5377.143,4193.327,5236.461,4348.055,4994.268,4474.684z"
		/>
</g>
<g id="Layer_13">
	<circle fill="#0F2530" cx="5699.229" cy="2262.201" r="120.271"/>
</g>
<g id="Layer_15">
</g>
<g id="Layer_14">
	<ellipse fill="#F1F9FB" cx="5749.68" cy="2205.204" rx="40.906" ry="42"/>
</g>
<g id="Layer_16">
	<ellipse fill="#B9D4DD" cx="6025.67" cy="4686.947" rx="88.906" ry="87.814"/>
	<ellipse fill="#B9D4DD" cx="6443.475" cy="4685.378" rx="95.453" ry="95.52"/>
</g>
<g id="Layer_17">
	<path fill="#72B7C7" d="M2538.96,5185.477c0,0-51.543-37.636,13.091-88.361c0,0,42.544-30.271,100.633-31.908h1561.587
		c0,0,82.909-6.816,90.544,72.816c0,0,3.271,71.994-74.181,76.36H2637.957C2637.957,5214.384,2587.231,5217.659,2538.96,5185.477z"
		/>
	<path fill="#72B7C7" d="M2621.198,5458.197c0,0-49.144-37.636,12.48-88.361c0,0,40.563-30.271,95.946-31.908h1488.863
		c0,0,79.048-6.816,86.328,72.816c0,0,3.118,71.994-70.726,76.36H2715.585C2715.585,5487.104,2667.221,5490.38,2621.198,5458.197z"
		/>
	<path fill="#72B7C7" d="M2875.51,5730.918c0,0-41.719-37.635,10.596-88.36c0,0,34.435-30.272,81.453-31.908h1263.97
		c0,0,67.108-6.817,73.289,72.815c0,0,2.646,71.995-60.043,76.36H2955.64C2955.64,5759.825,2914.582,5763.101,2875.51,5730.918z"/>
	<path fill="#72B7C7" d="M6879.131,5185.477c0,0,50.063-37.636-12.717-88.361c0,0-41.327-30.271-97.751-31.908h-1516.84
		c0,0-80.53-6.816-87.948,72.816c0,0-3.177,71.994,72.056,76.36h1547.038C6782.969,5214.384,6832.24,5217.659,6879.131,5185.477z"/>
	<path fill="#72B7C7" d="M6799.249,5458.197c0,0,47.733-37.636-12.123-88.361c0,0-39.402-30.271-93.196-31.908h-1446.2
		c0,0-76.782-6.816-83.854,72.816c0,0-3.03,71.994,68.699,76.36h1474.993C6707.567,5487.104,6754.544,5490.38,6799.249,5458.197z"/>
	<path fill="#72B7C7" d="M6552.223,5730.918c0,0,40.524-37.635-10.291-88.36c0,0-33.448-30.272-79.118-31.908H5235.061
		c0,0-65.184-6.817-71.188,72.815c0,0-2.57,71.995,58.322,76.36H6474.39C6474.39,5759.825,6514.271,5763.101,6552.223,5730.918z"/>
</g>
<g id="Layer_18">
	<path fill="#B9D4DD" d="M2101.247,6234.353l94.906-134.178c0,0-158.177-125.452-347.99-79.636c0,0-153.812,41.454-161.448,182.177
		c0,0-22.909,136.361,101.451,189.813c0,0,59.452,29.183,178.085,57c28.94,6.788,57.705,20.754,76.735,44.171
		c23.821,29.313-15.638,62.617-41.791,69.684c-11.005,2.972-23.339,4.634-34.732,4.849c-20.453,0.383-41.836-3.018-61.575-8.252
		c0,0-71.996-19.09-138.54-88.904l-120.815,130.63c0,0,148.905,150.541,365.716,121.087c25.266-3.432,51.895-10.38,75.041-20.837
		c53.662-24.244,101.528-68.7,121.959-124.903c6.589-18.121,10.179-39.39,10.607-58.648c0.548-24.593-1.464-54.34-9.277-77.817
		c-15.632-46.961-49.866-83.586-92.788-107.236c0,0-43.362-25.362-143.996-51.544c0,0-53.998-12.682-76.498-22.908
		c0,0-45.681-15.816-38.862-51.135c0,0,3-35.861,71.453-39.952C1928.889,6167.811,2024.885,6163.991,2101.247,6234.353z"/>
</g>
<g id="Layer_19">
	<path fill="#B9D4DD" d="M2348.33,6019.996h193.63c0,0,15.816,0.543,6.545,14.181c0,0-18,12.003-18,24.001v220.902h286.901v-203.45
		c0,0,1.091-20.725-24.544-40.907c0,0-13.637-14.727,13.635-14.727h174.541c0,0,26.728-2.727,14.182,15.272
		c0,0-13.09,8.179-14.182,23.452v627.255c0,0-1.091,16.906,13.091,27.271c0,0,10.364,9.817-5.454,8.728h-183.813
		c0,0-9.271-0.003-2.182-10.363c0,0,10.361-9.818,10.908-29.454v-242.721h-286.355v239.994c0,0-1.088,14.178,9.819,21.815
		c0,0,15.273,9.275,11.455,18.546H2354.33c0,0,8.727-4.905,8.727-23.998v-628.344c0,0,1.091-19.636-14.727-31.091
		C2348.33,6036.358,2332.376,6022.45,2348.33,6019.996z"/>
</g>
<g id="Layer_20">
	<path fill="#B9D4DD" d="M3501.932,6009.632c-201.831,0-365.444,160.866-365.444,359.308s163.614,359.309,365.444,359.309
		c201.828,0,365.441-160.867,365.441-359.309S3703.76,6009.632,3501.932,6009.632z M3501.932,6562.536
		c-108.748,0-196.904-86.674-196.904-193.597s88.156-193.597,196.904-193.597c108.745,0,196.901,86.674,196.901,193.597
		S3610.677,6562.536,3501.932,6562.536z"/>
</g>
<g id="Layer_21">
</g>
<g id="Layer_22">
	<path fill="#B9D4DD" d="M4444.447,6477.346c130.905-47.453,134.996-198.813,134.996-198.813
		c4.091-251.174-234.811-257.31-234.811-257.31h-335.854c-11.863,0-6.136,6.545-6.136,6.545
		c12.681,12.682,12.272,31.09,12.272,31.09v629.571c0,8.453-3,11.183-3,11.183c-9.271,10.911-10.655,21.271-10.655,21.271h192.286
		c2.183-16.906-14.182-23.454-14.182-23.454v-181.085h108.542l133.633,204.539h203.448L4444.447,6477.346z M4313.123,6357.895
		h-132.941v-179.177h140.723c0,0,94.088,0.818,94.088,94.906C4414.993,6273.624,4416.61,6355.44,4313.123,6357.895z"/>
	<path fill="#B9D4DD" d="M6917.632,6477.346c130.905-47.453,134.996-198.813,134.996-198.813
		c4.091-251.174-234.811-257.31-234.811-257.31h-335.854c-11.863,0-6.137,6.545-6.137,6.545
		c12.682,12.682,12.272,31.09,12.272,31.09v629.571c0,8.453-2.998,11.183-2.998,11.183c-9.271,10.911-10.655,21.271-10.655,21.271
		h192.286c2.183-16.906-14.184-23.454-14.184-23.454v-181.085h108.544l133.631,204.539h203.449L6917.632,6477.346z
		 M6786.312,6357.895h-132.944v-179.177h140.724c0,0,94.088,0.818,94.088,94.906
		C6888.179,6273.624,6889.796,6355.44,6786.312,6357.895z"/>
</g>
<g id="Layer_23">
	<path fill="#B9D4DD" d="M4729.166,6015.087h465.531c0,0,36.817,0.547,54.816-4.362c0,0-4.905,25.634-4.362,53.998v114.542h-335.99
		v113.452h288.534v151.631h-285.262v105.817h345.809v164.178h-529.076c0,0,9-7.914,11.454-30.004v-624.254
		C4740.619,6060.085,4742.256,6027.359,4729.166,6015.087z"/>
</g>
<g id="Layer_24">
</g>
<g id="Layer_25">
	<path fill="#B9D4DD" d="M5971.127,6508.163c0.547-123.816-101.86-161.313-101.86-161.313c-6.954-2.046-2.863-4.5-2.863-4.5
		c82.633-48.271,71.18-143.995,71.18-143.995c-4.909-165.268-203.722-182.449-203.722-182.449h-334.626
		c-12.815,3.001-1.911,15.545-1.911,15.545c12.004,11.454,10.911,26.181,10.911,26.181v639.799
		c-18,8.182-17.182,16.913-17.182,16.913h305.173C5985.854,6718.165,5971.127,6508.163,5971.127,6508.163z M5570.23,6172.177
		h143.995c0,0,69.813-1.09,72.541,55.634c0,0,2.727,52.909-58.907,55.635H5570.23V6172.177z M5730.042,6553.98h-158.176v-118.904
		h173.449c0,0,61.087,2.726,63.27,56.725C5808.585,6491.801,5814.584,6556.16,5730.042,6553.98z"/>
</g>
<g id="Layer_26">
	<path fill="#B9D4DD" d="M6107.487,6714.394c0,0,2.187-11.509,19.093-21.326v-650.16c0,0-22.912-14.187-12.548-27.002h181.631
		c0,0,21.272,0.274,14.728,11.729c0,0-16.363,13.634-15.817,27.817v629.98c0,0-1.636,9.818,10.365,18.546
		c0,0,8.728,8.287-2.727,10.416H6107.487z"/>
</g>
<g id="Layer_27">
</g>
<g id="Layer_28">
	<path fill="#B9D4DD" d="M7727.98,6119.812c-95.999-97.09-243.264-105.952-243.264-105.952h-276.946
		c-15.545,0.409-2.863,14.318-2.863,14.318c11.454,10.636,11.454,26.181,11.454,26.181v641.435
		c-22.908,17.182-16.328,25.091-16.328,25.091h251.139c144.813-1.09,237.537-74.18,237.537-74.18
		c147.269-110.18,142.906-267.266,142.906-267.266C7839.253,6220.169,7727.98,6119.812,7727.98,6119.812z M7662.257,6376.712
		c0,0,0.038,166.086-202.085,175.904h-83.452v-373.898h90.815C7467.535,6178.718,7665.529,6177.082,7662.257,6376.712z"/>
</g>
<g id="Layer_29">
	<path fill="#72B7C7" d="M2874.404,7334.773v-328.081h64.635l101.451,135.814l104.724-135.814h67.089v323.99h-85.907v-165.268
		h-5.181l-70.908,105.814c0,0-11.454,18.957-28.907-9.818l-64.363-94.359v167.722H2874.404z"/>
	<path fill="#72B7C7" d="M5163.855,7334.773v-328.081h64.635l101.451,135.814l104.725-135.814h67.089v323.99h-85.907v-165.268
		h-5.184l-70.904,105.814c0,0-11.454,18.957-28.911-9.818l-64.359-94.359v167.722H5163.855z"/>
	<polygon fill="#72B7C7" points="6582.564,7008.332 6327.847,7008.332 6327.847,7090.147 6416.204,7090.147 6416.204,7330.14 
		6501.292,7330.14 6501.292,7090.147 6582.564,7090.147 	"/>
</g>
<g id="Layer_30">
</g>
<g id="Layer_31">
	<path fill="#72B7C7" d="M3495.932,7002.877h-50.726c-20.726,38.725-152.724,327.263-152.724,327.263h91.634l21.818-58.361h124.905
		l25.089,58.361h91.634L3495.932,7002.877z M3429.115,7207.959l33.954-88.77c0,0,5.318-13.909,10.636,5.727l28.227,83.043H3429.115z
		"/>
	<path fill="#72B7C7" d="M4277.727,7002.877h-50.726c-20.726,38.725-152.724,327.263-152.724,327.263h91.634l21.818-58.361h124.905
		l25.089,58.361h91.634L4277.727,7002.877z M4210.91,7207.959l33.953-88.77c0,0,5.318-13.909,10.636,5.727l28.227,83.043H4210.91z"
		/>
	<polygon fill="#72B7C7" points="3718.742,7330.14 3718.742,7002.877 3778.467,7002.877 3929.008,7171.96 3929.008,7002.877 
		4013.278,7002.877 4013.278,7330.14 3960.917,7330.14 3802.194,7158.052 3802.194,7330.14 	"/>
	<polygon fill="#72B7C7" points="5943.856,7330.14 5943.856,7002.877 6003.581,7002.877 6154.122,7171.96 6154.122,7002.877 
		6238.393,7002.877 6238.393,7330.14 6186.03,7330.14 6027.308,7158.052 6027.308,7330.14 	"/>
	<path fill="#72B7C7" d="M4612.442,7221.597v-75.814h134.723v143.996c0,0-123.815,98.993-236.721,2.451
		c0,0-63.543-49.083-48.816-146.447c0,0,15.545-136.903,154.632-142.905c0,0,63.816-3.548,123.542,57.813l-56.453,54.817
		c0,0-39.27-53.181-100.905-20.454c0,0-43.089,20.726-40.363,82.362c0,0,0.545,60.815,68.725,76.363c0,0,57.543,9.543,57.816-10.64
		v-20.863L4612.442,7221.597z"/>
</g>
<g id="Layer_32">
	<path fill="#72B7C7" d="M4855.708,7330.14v-283.357c0,0-0.547-28.98-6.273-43.943h211.084v81.578h-124.359v51.545
		c0,0,79.907,1.09,104.452-3.819v76.363h-106.36v45.271h128.723v76.363H4855.708z"/>
	<path fill="#72B7C7" d="M5619.243,7330.14v-283.357c0,0-0.547-28.98-6.273-43.943h211.084v81.578h-124.359v51.545
		c0,0,79.907,1.09,104.452-3.819v76.363h-106.36v45.271h128.723v76.363H5619.243z"/>
	<ellipse fill="#72B7C7" cx="2423.055" cy="7189.96" rx="88.361" ry="90.815"/>
	<ellipse fill="#72B7C7" cx="7013.084" cy="7189.96" rx="88.361" ry="90.815"/>
</g>
</svg>
